<!DOCTYPE svg PUBLIC "-//W3C//DTD SVG 1.1//EN" "http://www.w3.org/Graphics/SVG/1.1/DTD/svg11.dtd">
<!-- Uploaded to: SVG Repo, www.svgrepo.com, Transformed by: SVG Repo Mixer Tools -->
<svg fill="#285739" height="800px" width="800px" version="1.1" id="Layer_1" xmlns="http://www.w3.org/2000/svg" xmlns:xlink="http://www.w3.org/1999/xlink" viewBox="0 0 512.006 512.006" xml:space="preserve" stroke="#285739">
<g id="SVGRepo_bgCarrier" stroke-width="0"/>
<g id="SVGRepo_tracerCarrier" stroke-linecap="round" stroke-linejoin="round"/>
<g id="SVGRepo_iconCarrier"> <g> <g> <path d="M415.731,108.044c-4.54-3.644-10.189-5.632-16.017-5.632h-63.956c1.024,3.823,2.091,7.595,2.739,11.827 c0.708,4.642,0.538,9.182,0.768,13.773h60.458c39.85,31.948,68.974,76.628,80.801,127.998H271.887 c-6.937-12.518-10.82-27.127-10.445-40.319c12.663-3.345,24.328-10.957,33.612-22.331c15.846-19.439,22.459-46.873,18.125-75.271 c-2.799-18.398-10.871-31.684-18.688-44.526c-10.061-16.554-19.558-32.196-19.558-60.748c0-4.437-2.304-8.55-6.076-10.888 c-3.763-2.364-8.49-2.551-12.45-0.563c-29.951,14.976-66.013,66.789-69.435,113.713c-2.637,36.112,5.564,67.276,22.485,85.486 c7.432,7.996,16.281,13.167,25.949,15.547c-0.196,13.286,2.816,27.008,8.107,39.91H31.473 c11.827-51.37,40.951-96.05,80.801-127.998h49.254c-0.009-4.949-0.461-9.694-0.085-14.797c0.265-3.61,1.092-7.193,1.647-10.803 h-50.807c-5.82,0-11.469,1.988-16.017,5.632C35.083,157.093,0.003,229.685,0.003,307.209s35.089,150.116,96.263,199.165 c4.54,3.644,10.189,5.632,16.017,5.632h287.449c5.82,0,11.469-1.988,16.017-5.632c61.174-49.049,96.254-121.641,96.254-199.165 S476.906,157.093,415.731,108.044z M228.215,183.145c-11.929-12.842-17.809-37.58-15.718-66.192 c2.159-29.585,21.086-61.61,38.971-79.862c4.002,21.546,12.987,36.326,21.154,49.766c7.1,11.673,13.227,21.76,15.266,35.089 c3.234,21.265-1.374,41.403-12.672,55.252c-7.39,9.071-27.904,14.873-27.904,14.873 C240.152,192.071,233.727,189.067,228.215,183.145z M399.715,486.406H112.274c-52.616-42.188-86.672-106.503-86.672-179.197 c0-8.67,0.555-17.194,1.493-25.6h457.806c0.939,8.405,1.493,16.93,1.493,25.6C486.395,379.903,452.33,444.227,399.715,486.406z"/> </g> </g> </g>
</svg>