<!DOCTYPE svg PUBLIC "-//W3C//DTD SVG 1.1//EN" "http://www.w3.org/Graphics/SVG/1.1/DTD/svg11.dtd">
<!-- Uploaded to: SVG Repo, www.svgrepo.com, Transformed by: SVG Repo Mixer Tools -->
<svg fill="#285739" height="800px" width="800px" version="1.1" id="Layer_1" xmlns="http://www.w3.org/2000/svg" xmlns:xlink="http://www.w3.org/1999/xlink" viewBox="0 0 511.992 511.992" xml:space="preserve" stroke="#285739">
<g id="SVGRepo_bgCarrier" stroke-width="0"/>
<g id="SVGRepo_tracerCarrier" stroke-linecap="round" stroke-linejoin="round"/>
<g id="SVGRepo_iconCarrier"> <g> <g> <path d="M486.434,195.025c0,0-108.996-0.154-140.834-0.154c-36.651,0-73.677,24.166-81.485,29.551l-108.689,62.652 c-18.347,10.581-24.661,34.108-14.089,52.446c6.835,11.861,19.584,19.226,33.28,19.226c6.144,0,12.211-1.485,17.664-4.309 c8.328-3.686,72.533-32.094,94.592-40.243c9.097-3.362,19.046-5.641,26.982-6.246c-2.415,2.517-6.161,5.888-11.955,10.035 l-8.277,5.982c-68.343,49.613-93.193,60.032-101.999,60.032H38.4c-21.171,0-38.4,17.229-38.4,38.4s17.229,38.4,38.4,38.4h107.204 h46.797c38.281,0,90.112-32.401,140.237-63.736c26.317-16.452,66.091-41.31,77.79-41.865h75.964c14.14,0,25.6-11.46,25.6-25.6 V220.625C512,206.502,500.557,195.051,486.434,195.025z M486.4,329.596c0,0-36.326,0-76.049,0s-161.152,105.6-217.95,105.6 c-40.627,0-46.797,0-46.797,0H38.4c-7.066,0-12.8-5.734-12.8-12.8c0-7.074,5.734-12.8,12.8-12.8c0,0,122.701,0,153.224,0 c30.524,0,100.659-53.248,125.175-70.801c24.516-17.562,31.198-32.802,24.405-47.07c-3.243-6.818-12.211-9.54-23.373-9.54 c-12.203,0-27.025,3.26-39.834,7.996c-24.533,9.062-96.998,41.259-96.998,41.259c-2.014,1.161-4.215,1.715-6.383,1.715 c-4.429,0-8.73-2.295-11.102-6.409c-3.533-6.127-1.425-13.952,4.693-17.485l109.662-63.215c0,0,35.891-25.574,67.729-25.574 c31.838,0,140.8,0.154,140.8,0.154V329.596z"/> </g> </g> <g> <g> <path d="M125.449,56.034c-4.847-6.451-15.65-6.451-20.497,0C98.15,65.105,38.4,146.095,38.4,191.706 c0,42.351,34.449,76.8,76.8,76.8s76.8-34.449,76.8-76.8C192,146.095,132.25,65.105,125.449,56.034z M115.2,242.914 c-28.228,0-51.2-22.963-51.2-51.2c0-26.334,31.053-76.868,51.2-106.027c20.147,29.158,51.2,79.701,51.2,106.027 C166.4,219.951,143.428,242.914,115.2,242.914z"/> </g> </g> </g>
</svg>