<!DOCTYPE svg PUBLIC "-//W3C//DTD SVG 1.1//EN" "http://www.w3.org/Graphics/SVG/1.1/DTD/svg11.dtd">

<!-- Uploaded to: SVG Repo, www.svgrepo.com, Transformed by: SVG Repo Mixer Tools -->
<svg fill="#285739" height="800px" width="800px" version="1.1" id="Layer_1" xmlns="http://www.w3.org/2000/svg" xmlns:xlink="http://www.w3.org/1999/xlink" viewBox="0 0 512 512" xml:space="preserve" stroke="#285739">

<g id="SVGRepo_bgCarrier" stroke-width="0"/>

<g id="SVGRepo_tracerCarrier" stroke-linecap="round" stroke-linejoin="round"/>

<g id="SVGRepo_iconCarrier"> <g> <g> <path d="M369.152,198.639c-9.131-11.23-10.752-13.687-10.752-19.439c0-17.69,6.255-32.077,14.174-50.287 C383.368,104.09,396.8,73.207,396.8,25.6c0-14.14-11.46-25.6-25.6-25.6H140.8c-14.14,0-25.6,11.46-25.6,25.6 c0,47.607,13.431,78.49,24.226,103.313c7.919,18.21,14.174,32.597,14.174,50.287c0,5.751-1.621,8.209-10.752,19.439 C118.144,229.026,76.8,279.885,76.8,486.4c0,14.14,11.46,25.6,25.6,25.6h307.2c14.14,0,25.6-11.46,25.6-25.6 C435.2,279.885,393.856,229.026,369.152,198.639z M102.4,486.4c0-281.6,76.8-256,76.8-307.2s-38.4-76.8-38.4-153.6 c51.2,0,179.2,0,230.4,0c0,76.8-38.4,102.4-38.4,153.6s76.8,25.6,76.8,307.2C358.4,486.4,153.6,486.4,102.4,486.4z"/> </g> </g> <g> <g> <path d="M256,230.4c-56.465,0-102.4,45.935-102.4,102.4v102.4c0,14.14,11.46,25.6,25.6,25.6h153.6c14.14,0,25.6-11.46,25.6-25.6 V332.8C358.4,276.335,312.465,230.4,256,230.4z M281.6,435.2h-51.2v-25.6h51.2V435.2z M332.8,435.2h-25.6v-25.6 c0-14.14-11.46-25.6-25.6-25.6H256h-25.6c-14.14,0-25.6,11.46-25.6,25.6v25.6h-25.6V332.8c0-42.419,34.381-76.8,76.8-76.8 c42.419,0,76.8,34.381,76.8,76.8V435.2z"/> </g> </g> <g> <g> <path d="M265.054,336.546c-1.348-1.348-3.379-3.379-3.703-2.739c0.009-0.009,0.503-1.562,3.703-4.762 c5.001-5,5.001-13.099,0-18.099c-5.001-5-13.099-5-18.099,0c-21.854,21.854-5.973,37.726,0,43.699 c1.365,1.365,3.49,3.362,3.703,2.739c-0.009,0.008-0.503,1.562-3.703,4.762c-5.001,5.001-5.001,13.099,0,18.099 c2.492,2.509,5.768,3.755,9.045,3.755c3.277,0,6.554-1.246,9.054-3.746C286.899,358.4,271.027,342.528,265.054,336.546z"/> </g> </g> </g>

</svg>