<!DOCTYPE svg PUBLIC "-//W3C//DTD SVG 1.1//EN" "http://www.w3.org/Graphics/SVG/1.1/DTD/svg11.dtd">
<!-- Uploaded to: SVG Repo, www.svgrepo.com, Transformed by: SVG Repo Mixer Tools -->
<svg fill="#285739" height="800px" width="800px" version="1.1" id="Layer_1" xmlns="http://www.w3.org/2000/svg" xmlns:xlink="http://www.w3.org/1999/xlink" viewBox="0 0 512 512" xml:space="preserve" stroke="#285739">
<g id="SVGRepo_bgCarrier" stroke-width="0"/>
<g id="SVGRepo_tracerCarrier" stroke-linecap="round" stroke-linejoin="round"/>
<g id="SVGRepo_iconCarrier"> <g> <g> <path d="M486.4,179.2H429.56l76.655-93.688c8.329-10.18,7.586-25.011-1.715-34.313L486.4,33.101 c-4.975-4.975-11.529-7.501-18.108-7.501c-5.726,0-11.469,1.911-16.205,5.786L271.428,179.2H25.6C11.46,179.2,0,190.66,0,204.8 v25.6c0,74.513,32.324,141.346,83.311,188.169c-3.917,4.497-6.511,10.197-6.511,16.631v25.6c0,14.14,11.46,25.6,25.6,25.6h307.2 c14.14,0,25.6-11.46,25.6-25.6v-25.6c0-6.434-2.594-12.134-6.511-16.631C479.676,371.746,512,304.913,512,230.4v-25.6 C512,190.66,500.54,179.2,486.4,179.2z M468.301,51.2L486.4,69.299L396.484,179.2h-84.634L468.301,51.2z M409.6,460.8H102.4v-25.6 h307.2V460.8z M486.4,230.4c0,72.55-33.766,136.977-86.187,179.2H111.787C59.366,367.377,25.6,302.95,25.6,230.4v-25.6h460.8 V230.4z"/> </g> </g> </g>
</svg>